<?xml version="1.0" encoding="utf-8"?>
<!-- Svg Vector Icons : http://www.onlinewebfonts.com/icon -->
<!DOCTYPE svg PUBLIC "-//W3C//DTD SVG 1.1//EN" "http://www.w3.org/Graphics/SVG/1.1/DTD/svg11.dtd">
<svg version="1.1" xmlns="http://www.w3.org/2000/svg" xmlns:xlink="http://www.w3.org/1999/xlink" x="0px" y="0px" viewBox="0 0 1000 1000" enable-background="new 0 0 1000 1000" xml:space="preserve">
<metadata> Svg Vector Icons : http://www.onlinewebfonts.com/icon </metadata>
<g><path d="M892.5,101.9h-0.1H438.8v122.5h428.8v490H316.3v122.5l61.3,0v57.5c0,0-183.4,65-64.9,65h433.6c101.2,0-18-47.4-54.8-61.3l-7.7-2.8v-58.4h183.8C968,836.9,990,775.5,990,735.2V199.4C990,145.8,946.1,101.9,892.5,101.9z"/><path d="M329.6,40.6h-26.8C276.4,40.6,255,62,255,88.5v135.9H132.5V88.5c0-26.4-21.4-47.9-47.9-47.9H57.9C31.4,40.6,10,62,10,88.5v44v105.3v34.5V299v17.2c0,16.9,13.7,30.6,30.6,30.6c2.6,0,5.2-0.3,7.6-1c3.1,0.6,6.3,1,9.6,1h74.6v564.6c0,26.4,21.4,47.9,47.9,47.9h26.8c26.4,0,47.9-21.4,47.9-47.9V346.9h74.6c3.3,0,6.5-0.3,9.6-1c2.4,0.6,5,1,7.6,1c16.9,0,30.6-13.7,30.6-30.6V299v-26.8v-34.5V132.5v-44C377.5,62,356.1,40.6,329.6,40.6z"/></g>
</svg>